/* XPM */
static char *c2321e1b341c4c77c140c4a0029078e3AJPDBL0dhDzf4k1T[] = {
/* columns rows colors chars-per-pixel */
"16 16 16 1 ",
"  c None",
". c #E41720",
"X c #E41B22",
"o c #E41E25",
"O c #E9474D",
"+ c #EA474D",
"@ c #E9474E",
"# c #E7484E",
"$ c #E9484F",
"% c #E9494F",
"& c #EA4950",
"* c #E94C52",
"= c #EF757A",
"- c #ED767A",
"; c #ED777C",
": c #ED787C",
/* pixels */
"                ",
"       X        ",
"                ",
"      o  .      ",
"                ",
"                ",
"   *  @  $  &   ",
"     $ #  @     ",
"      @         ",
"    :      -    ",
"   ; -      -   ",
"                ",
"                ",
"                ",
"                ",
"                "
};
