/* XPM */
static char *f02cce71e1a546ceb403d077926f0dbbGHyMoz5Muzj6JnOm[] = {
/* columns rows colors chars-per-pixel */
"48 48 159 2 ",
"   c None",
".  c #E5171D",
"X  c #E4161E",
"o  c #E4171F",
"O  c #E3181F",
"+  c #E4181E",
"@  c #E4181F",
"#  c #E5181F",
"$  c #E4191F",
"%  c #E6191E",
"&  c #E41720",
"*  c #E41721",
"=  c #E61721",
"-  c #E51820",
";  c #E41821",
":  c #E51821",
">  c #E41921",
",  c #E51921",
"<  c #E61921",
"1  c #E51A22",
"2  c #E41B22",
"3  c #E51B22",
"4  c #E41B23",
"5  c #E51B23",
"6  c #E61C22",
"7  c #E41E25",
"8  c #E51E26",
"9  c #E52028",
"0  c #E52229",
"q  c #E6222A",
"w  c #E6232B",
"e  c #E7242B",
"r  c #E6232C",
"t  c #E6252C",
"y  c #E7252C",
"u  c #E8272F",
"i  c #E62E36",
"p  c #E82931",
"a  c #E94247",
"s  c #EA434A",
"d  c #E94449",
"f  c #E9444B",
"g  c #E9454B",
"h  c #EA444A",
"j  c #E9464B",
"k  c #E9454C",
"l  c #EA454C",
"z  c #E9464C",
"x  c #E9464D",
"c  c #E9474D",
"v  c #EA464C",
"b  c #EA474C",
"n  c #EB474C",
"m  c #EA464D",
"M  c #EA474D",
"N  c #EB474D",
"B  c #E9474E",
"V  c #EA474E",
"C  c #EB474E",
"Z  c #EA484D",
"A  c #E9484E",
"S  c #EA484E",
"D  c #EB484E",
"F  c #EA484F",
"G  c #EA494F",
"H  c #EB494F",
"J  c #E94A4F",
"K  c #EA4A4F",
"L  c #EB4A4F",
"P  c #E94B50",
"I  c #E94A51",
"U  c #EA4B51",
"Y  c #EC4A50",
"T  c #EC4B50",
"R  c #EB4C51",
"E  c #EA4D52",
"W  c #EB4D53",
"Q  c #EB4E53",
"!  c #E94F55",
"~  c #EA4E54",
"^  c #EB4E54",
"/  c #EB4E56",
"(  c #EB4F56",
")  c #EC4F55",
"_  c #EB5054",
"`  c #EB5056",
"'  c #EB5057",
"]  c #EC5057",
"[  c #EB535A",
"{  c #EA5458",
"}  c #EE7176",
"|  c #EE7177",
" . c #EE7277",
".. c #EF7477",
"X. c #ED7379",
"o. c #EE7278",
"O. c #EE7378",
"+. c #EF7378",
"@. c #EE7379",
"#. c #EF7379",
"$. c #EE727A",
"%. c #EE7478",
"&. c #EE7479",
"*. c #EF7479",
"=. c #EE7579",
"-. c #EF7579",
";. c #EE747A",
":. c #EF747A",
">. c #EE757A",
",. c #EF757A",
"<. c #EF757B",
"1. c #EF767A",
"2. c #EF767B",
"3. c #EF777C",
"4. c #EF777E",
"5. c #EF787C",
"6. c #EF787D",
"7. c #EE797F",
"8. c #EF7A7F",
"9. c #EF7B7F",
"0. c #EF7C7F",
"q. c #F07379",
"w. c #F07478",
"e. c #F07479",
"r. c #F07579",
"t. c #F0747A",
"y. c #F0757A",
"u. c #F0757B",
"i. c #F0767B",
"p. c #F0767C",
"a. c #F0777C",
"s. c #F0777E",
"d. c #F0787B",
"f. c #F0797D",
"g. c #F0797E",
"h. c #F07D82",
"j. c #F6A0A3",
"k. c #F3A1A5",
"l. c #F3A3A5",
"z. c #F5A1A5",
"x. c #F6A1A5",
"c. c #F5A2A4",
"v. c #F4A2A5",
"b. c #F5A2A5",
"n. c #F4A3A6",
"m. c #F5A3A6",
"M. c #F6A2A6",
"N. c #F6A3A6",
"B. c #F5A4A6",
"V. c #F4A5A6",
"C. c #F5A4A7",
"Z. c #F6A5A6",
"A. c #F5A4A8",
"S. c #F4A5A8",
"D. c #F5A5A8",
"F. c #F7A5A8",
"G. c #F6A6A9",
"H. c #F6A8AA",
"J. c #F8B2B3",
/* pixels */
"                                                                                                ",
"                                                                                                ",
"                                                                                                ",
"                                                                                                ",
"                                                                                                ",
"                                              . O                                               ",
"                                            @ 5 5 @                                             ",
"                                          7 3 3 5 5 &                                           ",
"                                            q 3 5 3                                             ",
"                                              y &                                               ",
"                                    3 7                 q &                                     ",
"                                  3 5 5 7             5 3 3 3                                   ",
"                                  r 3 5 3 u         u 3 5 5 &                                   ",
"                                    r . e             u 3 &                                     ",
"                                                                                                ",
"                            v [             i 3 @               / v                             ",
"                          H H H v           3 3 5 @           Q H H s                           ",
"                            s H v             & 3             H H v                             ",
"                              Q                                 I                               ",
"                                      I R             I v                                       ",
"                    H v _           L H H R         I H I f           Q I v                     ",
"                    f I H )           v f             H v           { I v v                     ",
"                      Q f                                             F v                       ",
"                              I I           / v v             ` v                               ",
"              +.>.            I I v         L H H v         H H v             >.>.              ",
"              +.3.w.h.          n v           H H           ` v           h.+.3.>.              ",
"                w.>.                    `             /                     +.w.                ",
"                        w.f.          H H R         / H v           6.+.                        ",
"                        >.a.>.        I v H         / H v         >.w.+.                        ",
"          >.>.f.          w.q.                                    3.3.          f.a.+.          ",
"            >.+.d.              >.>.          B a           6.>.              a.>.+.            ",
"                    >.f.        >.w.w.        H v         >.>.+.        h.>.                    ",
"                    +.>.>.        w.                        +.        a.w.w.                    ",
"          C.                            a.h.        h.3.                            A.          ",
"          b.b.C.            >.q.        >.w.        >.+.        w.|             A.A.b.          ",
"                  l.A.        >.>.        |         |         a.a.        F.b.                  ",
"                    C.C.            >.                                  b.A.                    ",
"                          b.l.      w.a.      q.|       >.+.      A.b.                          ",
"                            J.A.      q.                q.      b.                              ",
"                                                                                                ",
"                                    b.      j.    C.      H.                                    ",
"                                                                                                ",
"                                                                                                ",
"                                                                                                ",
"                                                                                                ",
"                                                                                                ",
"                                                                                                ",
"                                                                                                "
};
