/* XPM */
static char *_971234cf9d14b4cd3d757b07c15df52oDdgPr2v3OcM0c2M[] = {
/* columns rows colors chars-per-pixel */
"33 32 76 1 ",
"  c None",
". c #E41820",
"X c #E41B22",
"o c #E41B23",
"O c #E31C24",
"+ c #E31E24",
"@ c #E41D25",
"# c #E51D25",
"$ c #E41E25",
"% c #E7444A",
"& c #E7464C",
"* c #E84349",
"= c #E9464A",
"- c #EA464B",
"; c #EB474B",
": c #E8454C",
"> c #E9464C",
", c #E8474C",
"< c #E9474D",
"1 c #EA464C",
"2 c #E9474E",
"3 c #E9484E",
"4 c #E8484F",
"5 c #E9484F",
"6 c #E9494F",
"7 c #E74A50",
"8 c #E94950",
"9 c #EA4950",
"0 c #E94A50",
"q c #E94B51",
"w c #EA4A50",
"e c #EB4A50",
"r c #EA4B50",
"t c #EA4B52",
"y c #E94C51",
"u c #E94D51",
"i c #ED7378",
"p c #ED737A",
"a c #ED7478",
"s c #EE7479",
"d c #EE7579",
"f c #EE757A",
"g c #ED767A",
"h c #EE767B",
"j c #EE777B",
"k c #ED767C",
"l c #ED777C",
"z c #ED777D",
"x c #EE777C",
"c c #EE777D",
"v c #EF777D",
"b c #ED787C",
"n c #ED787D",
"m c #ED797D",
"M c #EE787C",
"N c #EE787D",
"B c #EF787D",
"V c #EE797D",
"C c #EE797E",
"Z c #F3A3A6",
"A c #F3A5A7",
"S c #F3A5A9",
"D c #F3A7AB",
"F c #F4A4A8",
"G c #F4A6A9",
"H c #F4A7AA",
"J c #F4A8AA",
"K c #F4A8AB",
"L c #F5A9AB",
"P c #F6A9AA",
"I c #F6A9AB",
"U c #F4A8AC",
"Y c #F5A8AC",
"T c #F5A9AC",
"R c #F6A9AD",
"E c #F4AAAC",
/* pixels */
"                                 ",
"                                 ",
"                o                ",
"               ooo               ",
"               Ooo               ",
"                                 ",
"            #O#    ..            ",
"            +$#    ..            ",
"                                 ",
"         qq     .#    qe         ",
"         q6q    ##   qq5         ",
"                   q             ",
"       uq   &66   q6q    6       ",
"       qu    ::    6    uu       ",
"                6     ;          ",
"     dp   6q-   6*   6:    C     ",
"     dd    -              CC     ",
"         c   :q   6:    d        ",
"    c   cdC   :   -&   CC        ",
"    dc     B    6    c     CC    ",
"       CC  cd   --  cc   d       ",
"   R    C     C         pd   R   ",
"    L     CC  cC  d   dd    HR   ",
"      HL                 RR      ",
"         H   c  d  cc  L         ",
"                                 ",
"            Z  L LA H            ",
"               S A               ",
"                                 ",
"                                 ",
"                                 ",
"                                 "
};
