/* XPM */
static char *_4cc952c44c045459558635831a1c90ajghWWYxFVnF8GzAy[] = {
/* columns rows colors chars-per-pixel */
"32 32 77 1 ",
"  c None",
". c #E41720",
"X c #E41820",
"o c #E51820",
"O c #E41920",
"+ c #E41B22",
"@ c #E51A23",
"# c #E41B23",
"$ c #E41C24",
"% c #E41D25",
"& c #E51D25",
"* c #E41E25",
"= c #E51E25",
"- c #E7444A",
"; c #E7464C",
": c #E8464B",
"> c #E9464B",
", c #EB474B",
"< c #E9464C",
"1 c #E8474C",
"2 c #E8474D",
"3 c #E9474D",
"4 c #EA474C",
"5 c #EA464D",
"6 c #E9474E",
"7 c #E7484E",
"8 c #E9484E",
"9 c #E9494F",
"0 c #E94A4F",
"q c #E74B50",
"w c #E84950",
"e c #E94950",
"r c #EA4950",
"t c #EB4950",
"y c #E94A50",
"u c #E94B51",
"i c #EA4A50",
"p c #EA4B50",
"a c #E94C51",
"s c #E94D51",
"d c #E94C52",
"f c #ED7378",
"g c #ED737A",
"h c #EE7478",
"j c #EE7479",
"k c #EF7479",
"l c #EE747A",
"z c #ED777A",
"x c #ED767B",
"c c #EE767B",
"v c #EE777B",
"b c #ED777D",
"n c #EE767C",
"m c #EE777C",
"M c #EF777C",
"N c #EE777D",
"B c #EF777D",
"V c #ED787C",
"C c #ED787D",
"Z c #EE787D",
"A c #ED7A7D",
"S c #ED787E",
"D c #EE797E",
"F c #F3A5A7",
"G c #F4A4A6",
"H c #F4A4A7",
"J c #F3A7A9",
"K c #F4A6A8",
"L c #F4A7AA",
"P c #F4A6AB",
"I c #F6A9AA",
"U c #F6AAAB",
"Y c #F4A8AC",
"T c #F5A8AC",
"R c #F5A9AC",
"E c #F5A8AD",
"W c #F4AAAC",
/* pixels */
"                                ",
"                                ",
"               %                ",
"              ++@               ",
"               $@               ",
"            %                   ",
"           %%%    @.@           ",
"            =%    ..            ",
"                                ",
"         pp    $%    pp         ",
"         pp    %%    pp         ",
"                                ",
"      pa    88    88    pp      ",
"      qaa   ;<    p    pep      ",
"               <     <          ",
"    gk   7p;   p:   8<;   D     ",
"    gkk   -              DD     ",
"        n   <8   <8<   V        ",
"   D    nV   8    <   Vn    D   ",
"   kn      n   <:   n      DD   ",
"      DD  DkD  :<  Dn   kk      ",
"       n                k       ",
"   EE    DD  DD  kk  kV    EE   ",
"      U   D          D  JE      ",
"        GU  n  nV  V  U         ",
"                                ",
"            G P  K G            ",
"                                ",
"                                ",
"                                ",
"                                ",
"                                "
};
