/* XPM */
static char *_9cc31c5c15148a691967a4e92583eadj6UNTrsU4JVQnX4h[] = {
/* columns rows colors chars-per-pixel */
"32 32 74 1 ",
"  c None",
". c #E51820",
"X c #E51A22",
"o c #E41B22",
"O c #E51B22",
"+ c #E41B23",
"@ c #E51B23",
"# c #E61A22",
"$ c #E41D25",
"% c #E51D25",
"& c #E51E25",
"* c #E41D26",
"= c #E51E26",
"- c #E51F26",
"; c #E6242C",
": c #E6252C",
"> c #E6242D",
", c #EA454B",
"< c #E9464C",
"1 c #E9464D",
"2 c #E9474D",
"3 c #EA464D",
"4 c #EA474D",
"5 c #E9494E",
"6 c #E9494F",
"7 c #EA484E",
"8 c #EB484E",
"9 c #EA494E",
"0 c #EA484F",
"q c #EA494F",
"w c #EB494F",
"e c #EA4A4F",
"r c #E94950",
"t c #E94B51",
"y c #EA4A50",
"u c #EA4B51",
"i c #E94B52",
"p c #EA4B52",
"a c #EA4E53",
"s c #E94E54",
"d c #EB4E54",
"f c #EB4F54",
"g c #EA4F56",
"h c #EB5156",
"j c #ED7379",
"k c #EF7278",
"l c #EF7378",
"z c #EF7279",
"x c #ED7579",
"c c #EF7478",
"v c #EF7579",
"b c #EF747A",
"n c #EE757A",
"m c #EF757A",
"M c #ED767B",
"N c #EF767A",
"B c #EE767B",
"V c #EF767B",
"C c #EF777B",
"Z c #EE767C",
"A c #EE777C",
"S c #EE777D",
"D c #EE787D",
"F c #F07277",
"G c #F07479",
"H c #F0777C",
"J c #F0787E",
"K c #F5A2A5",
"L c #F5A4A7",
"P c #F5A5A7",
"I c #F7A5A9",
"U c #F5A6A9",
"Y c #F5AFB0",
"T c #F7B4B8",
/* pixels */
"                                ",
"                                ",
"                                ",
"                                ",
"               ..               ",
"               .@               ",
"                                ",
"            &>    >@            ",
"            &;    &@            ",
"                                ",
"         1t    &&    g,         ",
"         ,q    >&    1q         ",
"                                ",
"       q    w1    qq    q       ",
"       q,    1    1    qq       ",
"          g    hi    h          ",
"     m    tt   q,   tq    m     ",
"     mm                  mH     ",
"        Hl   qg  iq    A        ",
"    J    l            m    H    ",
"     A     A   qq   m     m     ",
"       H   A        m   m       ",
"   U         mD  D          U   ",
"      K   F   m  H   F   L      ",
"            m      l            ",
"         Y            L         ",
"                                ",
"                   T            ",
"                                ",
"                                ",
"                                ",
"                                "
};
